<mxfile host="app.diagrams.net" modified="2022-05-05T22:24:42.113Z" agent="5.0 (Macintosh; Intel Mac OS X 10_15_7) AppleWebKit/537.36 (KHTML, like Gecko) Chrome/101.0.4951.54 Safari/537.36" etag="Tpg7hp0Mmr4glQM4kmf-" version="18.0.0" type="github">
  <diagram id="C5RBs43oDa-KdzZeNtuy" name="Page-1">
    <mxGraphModel dx="1261" dy="785" grid="1" gridSize="10" guides="1" tooltips="1" connect="1" arrows="1" fold="1" page="1" pageScale="1" pageWidth="827" pageHeight="1169" math="0" shadow="0">
      <root>
        <mxCell id="WIyWlLk6GJQsqaUBKTNV-0" />
        <mxCell id="WIyWlLk6GJQsqaUBKTNV-1" parent="WIyWlLk6GJQsqaUBKTNV-0" />
        <mxCell id="Iiy8EJFlqJbz6gkXB-Cf-7" value="" style="edgeStyle=orthogonalEdgeStyle;rounded=0;orthogonalLoop=1;jettySize=auto;html=1;labelPosition=center;verticalLabelPosition=middle;align=center;verticalAlign=middle;" parent="WIyWlLk6GJQsqaUBKTNV-1" source="Iiy8EJFlqJbz6gkXB-Cf-3" target="Iiy8EJFlqJbz6gkXB-Cf-6" edge="1">
          <mxGeometry relative="1" as="geometry" />
        </mxCell>
        <mxCell id="Iiy8EJFlqJbz6gkXB-Cf-3" value="Recherche de l&#39;utilisateur" style="whiteSpace=wrap;html=1;labelPosition=center;verticalLabelPosition=middle;align=center;verticalAlign=middle;fillColor=#f5f5f5;strokeColor=#666666;fontColor=#333333;rounded=1;" parent="WIyWlLk6GJQsqaUBKTNV-1" vertex="1">
          <mxGeometry x="105" y="30" width="120" height="60" as="geometry" />
        </mxCell>
        <mxCell id="Iiy8EJFlqJbz6gkXB-Cf-9" value="" style="edgeStyle=orthogonalEdgeStyle;rounded=0;orthogonalLoop=1;jettySize=auto;html=1;labelPosition=center;verticalLabelPosition=middle;align=center;verticalAlign=middle;" parent="WIyWlLk6GJQsqaUBKTNV-1" source="Iiy8EJFlqJbz6gkXB-Cf-6" target="Iiy8EJFlqJbz6gkXB-Cf-8" edge="1">
          <mxGeometry relative="1" as="geometry" />
        </mxCell>
        <mxCell id="Iiy8EJFlqJbz6gkXB-Cf-6" value="Nlength = nombre de caractère entré dans la barre de recherche" style="shape=parallelogram;perimeter=parallelogramPerimeter;whiteSpace=wrap;html=1;fixedSize=1;fillColor=#fad9d5;strokeColor=#ae4132;rounded=1;" parent="WIyWlLk6GJQsqaUBKTNV-1" vertex="1">
          <mxGeometry y="120" width="330" height="60" as="geometry" />
        </mxCell>
        <mxCell id="Iiy8EJFlqJbz6gkXB-Cf-11" value="" style="edgeStyle=orthogonalEdgeStyle;rounded=0;orthogonalLoop=1;jettySize=auto;html=1;labelPosition=center;verticalLabelPosition=middle;align=center;verticalAlign=middle;" parent="WIyWlLk6GJQsqaUBKTNV-1" source="Iiy8EJFlqJbz6gkXB-Cf-8" target="Iiy8EJFlqJbz6gkXB-Cf-10" edge="1">
          <mxGeometry relative="1" as="geometry" />
        </mxCell>
        <mxCell id="Iiy8EJFlqJbz6gkXB-Cf-12" value="Non" style="edgeLabel;html=1;align=center;verticalAlign=middle;resizable=0;points=[];labelPosition=center;verticalLabelPosition=middle;" parent="Iiy8EJFlqJbz6gkXB-Cf-11" vertex="1" connectable="0">
          <mxGeometry x="-0.2" y="-1" relative="1" as="geometry">
            <mxPoint y="-1" as="offset" />
          </mxGeometry>
        </mxCell>
        <mxCell id="Iiy8EJFlqJbz6gkXB-Cf-14" value="" style="edgeStyle=orthogonalEdgeStyle;rounded=0;orthogonalLoop=1;jettySize=auto;html=1;labelPosition=center;verticalLabelPosition=middle;align=center;verticalAlign=middle;" parent="WIyWlLk6GJQsqaUBKTNV-1" source="Iiy8EJFlqJbz6gkXB-Cf-8" edge="1">
          <mxGeometry relative="1" as="geometry">
            <mxPoint x="165" y="320" as="targetPoint" />
          </mxGeometry>
        </mxCell>
        <mxCell id="Iiy8EJFlqJbz6gkXB-Cf-15" value="Oui" style="edgeLabel;html=1;align=center;verticalAlign=middle;resizable=0;points=[];labelPosition=center;verticalLabelPosition=middle;" parent="Iiy8EJFlqJbz6gkXB-Cf-14" vertex="1" connectable="0">
          <mxGeometry x="0.6333" y="-1" relative="1" as="geometry">
            <mxPoint x="1" y="-11" as="offset" />
          </mxGeometry>
        </mxCell>
        <mxCell id="Iiy8EJFlqJbz6gkXB-Cf-8" value="Nlength &amp;gt; 3" style="rhombus;whiteSpace=wrap;html=1;labelPosition=center;verticalLabelPosition=middle;align=center;verticalAlign=middle;fillColor=#fff2cc;strokeColor=#d6b656;" parent="WIyWlLk6GJQsqaUBKTNV-1" vertex="1">
          <mxGeometry x="125" y="210" width="80" height="80" as="geometry" />
        </mxCell>
        <mxCell id="Iiy8EJFlqJbz6gkXB-Cf-10" value="L&#39;interface ne change pas" style="whiteSpace=wrap;html=1;labelPosition=center;verticalLabelPosition=middle;align=center;verticalAlign=middle;fillColor=#f5f5f5;strokeColor=#666666;rounded=1;fontColor=#333333;" parent="WIyWlLk6GJQsqaUBKTNV-1" vertex="1">
          <mxGeometry x="245" y="220" width="120" height="60" as="geometry" />
        </mxCell>
        <mxCell id="9EUDGltDmxE99oZRwppm-45" style="edgeStyle=orthogonalEdgeStyle;rounded=0;orthogonalLoop=1;jettySize=auto;html=1;exitX=0.5;exitY=1;exitDx=0;exitDy=0;entryX=0.5;entryY=0;entryDx=0;entryDy=0;shadow=0;startArrow=none;startFill=0;endArrow=classic;endFill=1;strokeColor=default;labelPosition=center;verticalLabelPosition=middle;align=center;verticalAlign=middle;" parent="WIyWlLk6GJQsqaUBKTNV-1" source="9EUDGltDmxE99oZRwppm-0" edge="1">
          <mxGeometry relative="1" as="geometry">
            <mxPoint x="155" y="1000" as="targetPoint" />
          </mxGeometry>
        </mxCell>
        <mxCell id="9EUDGltDmxE99oZRwppm-0" value="ajout des recettes dans un tableau" style="whiteSpace=wrap;html=1;labelPosition=center;verticalLabelPosition=middle;align=center;verticalAlign=middle;fillColor=#f5f5f5;strokeColor=#666666;rounded=1;fontColor=#333333;" parent="WIyWlLk6GJQsqaUBKTNV-1" vertex="1">
          <mxGeometry x="95" y="890" width="120" height="60" as="geometry" />
        </mxCell>
        <mxCell id="9EUDGltDmxE99oZRwppm-31" value="non" style="edgeStyle=none;rounded=0;orthogonalLoop=1;jettySize=auto;html=1;exitX=1;exitY=0.5;exitDx=0;exitDy=0;entryX=0;entryY=0.5;entryDx=0;entryDy=0;shadow=0;startArrow=none;startFill=0;endArrow=classic;endFill=1;strokeColor=default;labelPosition=center;verticalLabelPosition=middle;align=center;verticalAlign=middle;" parent="WIyWlLk6GJQsqaUBKTNV-1" target="9EUDGltDmxE99oZRwppm-3" edge="1">
          <mxGeometry relative="1" as="geometry">
            <mxPoint x="221" y="760" as="sourcePoint" />
            <mxPoint x="261" y="760" as="targetPoint" />
          </mxGeometry>
        </mxCell>
        <mxCell id="9EUDGltDmxE99oZRwppm-34" style="edgeStyle=orthogonalEdgeStyle;rounded=0;orthogonalLoop=1;jettySize=auto;html=1;exitX=0.5;exitY=1;exitDx=0;exitDy=0;shadow=0;startArrow=none;startFill=0;endArrow=classic;endFill=1;strokeColor=default;labelPosition=center;verticalLabelPosition=middle;align=center;verticalAlign=middle;" parent="WIyWlLk6GJQsqaUBKTNV-1" source="9EUDGltDmxE99oZRwppm-1" target="9EUDGltDmxE99oZRwppm-0" edge="1">
          <mxGeometry relative="1" as="geometry" />
        </mxCell>
        <mxCell id="9EUDGltDmxE99oZRwppm-37" value="oui" style="edgeLabel;html=1;align=center;verticalAlign=middle;resizable=0;points=[];labelPosition=center;verticalLabelPosition=middle;" parent="9EUDGltDmxE99oZRwppm-34" vertex="1" connectable="0">
          <mxGeometry x="-0.8667" y="2" relative="1" as="geometry">
            <mxPoint as="offset" />
          </mxGeometry>
        </mxCell>
        <mxCell id="9EUDGltDmxE99oZRwppm-1" value="inclus dans&lt;br&gt;&amp;nbsp;le nom &lt;br&gt;des recettes" style="rhombus;whiteSpace=wrap;html=1;labelPosition=center;verticalLabelPosition=middle;align=center;verticalAlign=middle;fillColor=#fff2cc;strokeColor=#d6b656;" parent="WIyWlLk6GJQsqaUBKTNV-1" vertex="1">
          <mxGeometry x="105" y="700" width="120" height="120" as="geometry" />
        </mxCell>
        <mxCell id="9EUDGltDmxE99oZRwppm-32" value="non" style="edgeStyle=none;rounded=0;orthogonalLoop=1;jettySize=auto;html=1;exitX=1;exitY=0.5;exitDx=0;exitDy=0;entryX=0;entryY=0.5;entryDx=0;entryDy=0;shadow=0;startArrow=none;startFill=0;endArrow=classic;endFill=1;strokeColor=default;labelPosition=center;verticalLabelPosition=middle;align=center;verticalAlign=middle;" parent="WIyWlLk6GJQsqaUBKTNV-1" edge="1">
          <mxGeometry relative="1" as="geometry">
            <mxPoint x="385" y="759.5" as="sourcePoint" />
            <mxPoint x="425" y="759.5" as="targetPoint" />
          </mxGeometry>
        </mxCell>
        <mxCell id="9EUDGltDmxE99oZRwppm-35" style="edgeStyle=orthogonalEdgeStyle;rounded=0;orthogonalLoop=1;jettySize=auto;html=1;exitX=0.5;exitY=1;exitDx=0;exitDy=0;entryX=0.5;entryY=0;entryDx=0;entryDy=0;shadow=0;startArrow=none;startFill=0;endArrow=classic;endFill=1;strokeColor=default;labelPosition=center;verticalLabelPosition=middle;align=center;verticalAlign=middle;" parent="WIyWlLk6GJQsqaUBKTNV-1" source="9EUDGltDmxE99oZRwppm-3" target="9EUDGltDmxE99oZRwppm-0" edge="1">
          <mxGeometry relative="1" as="geometry" />
        </mxCell>
        <mxCell id="9EUDGltDmxE99oZRwppm-38" value="oui" style="edgeLabel;html=1;align=center;verticalAlign=middle;resizable=0;points=[];labelPosition=center;verticalLabelPosition=middle;" parent="9EUDGltDmxE99oZRwppm-35" vertex="1" connectable="0">
          <mxGeometry x="-0.8685" relative="1" as="geometry">
            <mxPoint y="-3" as="offset" />
          </mxGeometry>
        </mxCell>
        <mxCell id="9EUDGltDmxE99oZRwppm-3" value="inclus dans les ingrédients&lt;br&gt;&amp;nbsp;des recettes" style="rhombus;whiteSpace=wrap;html=1;labelPosition=center;verticalLabelPosition=middle;align=center;verticalAlign=middle;fillColor=#fff2cc;strokeColor=#d6b656;" parent="WIyWlLk6GJQsqaUBKTNV-1" vertex="1">
          <mxGeometry x="265" y="702.5" width="120" height="115" as="geometry" />
        </mxCell>
        <mxCell id="9EUDGltDmxE99oZRwppm-36" style="edgeStyle=orthogonalEdgeStyle;rounded=0;orthogonalLoop=1;jettySize=auto;html=1;exitX=0.5;exitY=1;exitDx=0;exitDy=0;shadow=0;startArrow=none;startFill=0;endArrow=classic;endFill=1;strokeColor=default;labelPosition=center;verticalLabelPosition=middle;align=center;verticalAlign=middle;" parent="WIyWlLk6GJQsqaUBKTNV-1" source="9EUDGltDmxE99oZRwppm-4" edge="1">
          <mxGeometry relative="1" as="geometry">
            <mxPoint x="155" y="890" as="targetPoint" />
          </mxGeometry>
        </mxCell>
        <mxCell id="9EUDGltDmxE99oZRwppm-39" value="oui" style="edgeLabel;html=1;align=center;verticalAlign=middle;resizable=0;points=[];labelPosition=center;verticalLabelPosition=middle;" parent="9EUDGltDmxE99oZRwppm-36" vertex="1" connectable="0">
          <mxGeometry x="-0.9493" y="-1" relative="1" as="geometry">
            <mxPoint y="6" as="offset" />
          </mxGeometry>
        </mxCell>
        <mxCell id="5MV-u7d3MF2TFXwry06j-0" value="" style="edgeStyle=orthogonalEdgeStyle;rounded=0;orthogonalLoop=1;jettySize=auto;html=1;labelPosition=center;verticalLabelPosition=middle;align=center;verticalAlign=middle;" parent="WIyWlLk6GJQsqaUBKTNV-1" source="9EUDGltDmxE99oZRwppm-4" target="9EUDGltDmxE99oZRwppm-49" edge="1">
          <mxGeometry relative="1" as="geometry" />
        </mxCell>
        <mxCell id="5MV-u7d3MF2TFXwry06j-1" value="non" style="edgeLabel;html=1;align=center;verticalAlign=middle;resizable=0;points=[];labelPosition=center;verticalLabelPosition=middle;" parent="5MV-u7d3MF2TFXwry06j-0" vertex="1" connectable="0">
          <mxGeometry x="-0.2333" y="2" relative="1" as="geometry">
            <mxPoint as="offset" />
          </mxGeometry>
        </mxCell>
        <mxCell id="9EUDGltDmxE99oZRwppm-4" value="inclus dans les ustensiles des recettes" style="rhombus;whiteSpace=wrap;html=1;labelPosition=center;verticalLabelPosition=middle;align=center;verticalAlign=middle;fillColor=#fff2cc;strokeColor=#d6b656;" parent="WIyWlLk6GJQsqaUBKTNV-1" vertex="1">
          <mxGeometry x="425" y="702.5" width="120" height="115" as="geometry" />
        </mxCell>
        <mxCell id="3CaK78w-I8ICb345wkqr-18" style="edgeStyle=orthogonalEdgeStyle;rounded=0;orthogonalLoop=1;jettySize=auto;html=1;exitX=0.25;exitY=1;exitDx=0;exitDy=0;entryX=0;entryY=0.5;entryDx=0;entryDy=0;" edge="1" parent="WIyWlLk6GJQsqaUBKTNV-1" source="9EUDGltDmxE99oZRwppm-5" target="9EUDGltDmxE99oZRwppm-1">
          <mxGeometry relative="1" as="geometry">
            <Array as="points">
              <mxPoint x="80" y="670" />
              <mxPoint x="80" y="760" />
            </Array>
          </mxGeometry>
        </mxCell>
        <mxCell id="9EUDGltDmxE99oZRwppm-5" value="Vérification dans le tableau si la recherche est inclus." style="whiteSpace=wrap;html=1;labelPosition=center;verticalLabelPosition=middle;align=center;verticalAlign=middle;fillColor=#f5f5f5;strokeColor=#666666;rounded=1;fontColor=#333333;" parent="WIyWlLk6GJQsqaUBKTNV-1" vertex="1">
          <mxGeometry x="35" y="610" width="260" height="60" as="geometry" />
        </mxCell>
        <mxCell id="9EUDGltDmxE99oZRwppm-29" style="edgeStyle=none;rounded=0;orthogonalLoop=1;jettySize=auto;html=1;exitX=0.5;exitY=0;exitDx=0;exitDy=0;shadow=0;startArrow=none;startFill=0;endArrow=classic;endFill=1;strokeColor=default;labelPosition=center;verticalLabelPosition=middle;align=center;verticalAlign=middle;" parent="WIyWlLk6GJQsqaUBKTNV-1" source="9EUDGltDmxE99oZRwppm-3" target="9EUDGltDmxE99oZRwppm-3" edge="1">
          <mxGeometry relative="1" as="geometry" />
        </mxCell>
        <mxCell id="9EUDGltDmxE99oZRwppm-47" value="Affiche les recettes" style="whiteSpace=wrap;html=1;labelPosition=center;verticalLabelPosition=middle;align=center;verticalAlign=middle;fillColor=#f5f5f5;strokeColor=#666666;rounded=1;fontColor=#333333;" parent="WIyWlLk6GJQsqaUBKTNV-1" vertex="1">
          <mxGeometry x="95" y="1000" width="120" height="60" as="geometry" />
        </mxCell>
        <mxCell id="9EUDGltDmxE99oZRwppm-49" value="Affiche: &quot;&lt;span style=&quot;font-family: &amp;#34;lato&amp;#34; , sans-serif ; font-size: 10px&quot;&gt;Aucune recette ne correspond à votre critère… vous pouvez chercher « tarte aux pommes », « poisson »&lt;/span&gt;&lt;br&gt;&amp;nbsp;&quot;" style="whiteSpace=wrap;html=1;labelPosition=center;verticalLabelPosition=middle;align=center;verticalAlign=middle;fillColor=#f5f5f5;strokeColor=#666666;fontColor=#333333;rounded=1;" parent="WIyWlLk6GJQsqaUBKTNV-1" vertex="1">
          <mxGeometry x="605" y="710" width="200" height="100" as="geometry" />
        </mxCell>
        <mxCell id="3CaK78w-I8ICb345wkqr-9" style="edgeStyle=orthogonalEdgeStyle;rounded=0;orthogonalLoop=1;jettySize=auto;html=1;exitX=0.5;exitY=1;exitDx=0;exitDy=0;entryX=0.5;entryY=0;entryDx=0;entryDy=0;" edge="1" parent="WIyWlLk6GJQsqaUBKTNV-1" source="3CaK78w-I8ICb345wkqr-3" target="3CaK78w-I8ICb345wkqr-4">
          <mxGeometry relative="1" as="geometry" />
        </mxCell>
        <mxCell id="3CaK78w-I8ICb345wkqr-10" value="Oui" style="edgeLabel;html=1;align=center;verticalAlign=middle;resizable=0;points=[];" vertex="1" connectable="0" parent="3CaK78w-I8ICb345wkqr-9">
          <mxGeometry x="-0.1429" y="3" relative="1" as="geometry">
            <mxPoint x="-3" y="-3" as="offset" />
          </mxGeometry>
        </mxCell>
        <mxCell id="3CaK78w-I8ICb345wkqr-15" style="edgeStyle=orthogonalEdgeStyle;rounded=0;orthogonalLoop=1;jettySize=auto;html=1;exitX=1;exitY=0.5;exitDx=0;exitDy=0;" edge="1" parent="WIyWlLk6GJQsqaUBKTNV-1" source="3CaK78w-I8ICb345wkqr-3">
          <mxGeometry relative="1" as="geometry">
            <mxPoint x="165" y="590" as="targetPoint" />
            <Array as="points">
              <mxPoint x="330" y="400" />
              <mxPoint x="330" y="590" />
            </Array>
          </mxGeometry>
        </mxCell>
        <mxCell id="3CaK78w-I8ICb345wkqr-16" value="Non" style="edgeLabel;html=1;align=center;verticalAlign=middle;resizable=0;points=[];" vertex="1" connectable="0" parent="3CaK78w-I8ICb345wkqr-15">
          <mxGeometry x="-0.9331" relative="1" as="geometry">
            <mxPoint x="5" as="offset" />
          </mxGeometry>
        </mxCell>
        <mxCell id="3CaK78w-I8ICb345wkqr-3" value="Ajout de un ou plusieurs&lt;br&gt;tags de l&#39;utilisateur" style="rhombus;whiteSpace=wrap;html=1;labelPosition=center;verticalLabelPosition=middle;align=center;verticalAlign=middle;fillColor=#fff2cc;strokeColor=#d6b656;" vertex="1" parent="WIyWlLk6GJQsqaUBKTNV-1">
          <mxGeometry x="85" y="320" width="160" height="160" as="geometry" />
        </mxCell>
        <mxCell id="3CaK78w-I8ICb345wkqr-12" style="edgeStyle=orthogonalEdgeStyle;rounded=0;orthogonalLoop=1;jettySize=auto;html=1;exitX=0.5;exitY=1;exitDx=0;exitDy=0;entryX=0.5;entryY=0;entryDx=0;entryDy=0;" edge="1" parent="WIyWlLk6GJQsqaUBKTNV-1" source="3CaK78w-I8ICb345wkqr-4" target="9EUDGltDmxE99oZRwppm-5">
          <mxGeometry relative="1" as="geometry" />
        </mxCell>
        <mxCell id="3CaK78w-I8ICb345wkqr-4" value="Filtre le tableau des recettes avec les tags utilisés" style="whiteSpace=wrap;html=1;labelPosition=center;verticalLabelPosition=middle;align=center;verticalAlign=middle;fillColor=#f5f5f5;strokeColor=#666666;rounded=1;fontColor=#333333;" vertex="1" parent="WIyWlLk6GJQsqaUBKTNV-1">
          <mxGeometry x="35" y="515" width="260" height="60" as="geometry" />
        </mxCell>
      </root>
    </mxGraphModel>
  </diagram>
</mxfile>
